<svg width="95" height="91" viewBox="0 0 95 91" fill="none" xmlns="http://www.w3.org/2000/svg">
<g clip-path="url(#clip0_85_1581)">
<path d="M92.9597 45.5C92.9597 54.499 90.2936 63.296 85.2984 70.7784C80.3033 78.2609 73.2035 84.0927 64.8969 87.5365C56.5903 90.9803 47.4499 91.8814 38.6317 90.1257C29.8134 88.3701 21.7134 84.0366 15.3558 77.6734C8.99817 71.3101 4.66858 63.2027 2.91452 54.3766C1.16047 45.5505 2.06071 36.4019 5.50142 28.0879C8.94213 19.7739 14.7688 12.6677 22.2445 7.66813C29.7203 2.66853 38.5094 0 47.5004 0C59.5569 0 71.1197 4.79374 79.645 13.3266C88.1703 21.8595 92.9597 33.4326 92.9597 45.5Z" fill="#30D6CE"/>
<path d="M89.4339 31.5716C89.4339 32.0641 89.2384 32.5364 88.8905 32.8847C88.5426 33.2329 88.0707 33.4285 87.5786 33.4285C87.0866 33.4285 86.6147 33.2329 86.2668 32.8847C85.9189 32.5364 85.7234 32.0641 85.7234 31.5716C85.7146 24.1865 82.7798 17.1064 77.5627 11.884C72.3457 6.66167 65.2722 3.72346 57.8937 3.7138H37.1087C29.7299 3.72289 22.6558 6.66085 17.4383 11.8833C12.2208 17.1057 9.28568 24.1862 9.27689 31.5716C9.27689 32.0641 9.08143 32.5364 8.7335 32.8847C8.38558 33.2329 7.91369 33.4285 7.42165 33.4285C6.92961 33.4285 6.45772 33.2329 6.10979 32.8847C5.76187 32.5364 5.56641 32.0641 5.56641 31.5716C5.57577 23.2014 8.90194 15.1766 14.8152 9.25784C20.7285 3.33907 28.746 0.00965362 37.1087 0L57.8937 0C66.2561 0.0102213 74.273 3.33989 80.1858 9.2586C86.0986 15.1773 89.4245 23.2017 89.4339 31.5716Z" fill="#025F80"/>
<path d="M95 27.4384V34.8671C95 36.3448 94.4135 37.762 93.3695 38.8069C92.3255 39.8519 90.9096 40.4389 89.4332 40.4389H87.2071C87.1602 40.8987 86.9445 41.3248 86.6018 41.6346C86.2591 41.9443 85.8137 42.1158 85.3519 42.1158C84.8901 42.1158 84.4447 41.9443 84.102 41.6346C83.7592 41.3248 83.5435 40.8987 83.4966 40.4389H80.157C79.9134 40.4389 79.6721 40.3909 79.447 40.2975C79.2219 40.2042 79.0174 40.0674 78.8451 39.895C78.6729 39.7226 78.5362 39.5179 78.443 39.2926C78.3497 39.0673 78.3017 38.8258 78.3017 38.582V23.7246C78.302 23.2323 78.4976 22.7603 78.8455 22.4123C79.1934 22.0643 79.6651 21.8688 80.157 21.8688H82.9222L82.3123 20.2028C82.0986 19.5181 82.1567 18.7773 82.4745 18.1344C82.7924 17.4915 83.3454 16.9958 84.0189 16.7504C84.6923 16.505 85.4344 16.5287 86.0908 16.8167C86.7472 17.1046 87.2675 17.6346 87.5437 18.2966L88.8502 21.8688H89.4386C90.9137 21.8702 92.3279 22.4576 93.3707 23.5019C94.4134 24.5462 94.9994 25.962 95 27.4384ZM14.8441 21.8688H12.0789L12.6845 20.2039C12.8995 19.5189 12.8423 18.7773 12.5247 18.1334C12.2072 17.4896 11.6538 16.9931 10.9797 16.7473C10.3057 16.5016 9.56288 16.5255 8.90598 16.814C8.24909 17.1026 7.72869 17.6337 7.45312 18.2966L6.1552 21.8688H5.5668C4.09076 21.8688 2.67515 22.4555 1.63124 23.5C0.58732 24.5444 0.000568362 25.9611 0 27.4384L0 34.8671C0 36.3448 0.5865 37.762 1.63048 38.8069C2.67446 39.8519 4.09039 40.4389 5.5668 40.4389H14.8441C15.0877 40.4389 15.329 40.3909 15.5541 40.2975C15.7791 40.2042 15.9837 40.0674 16.1559 39.895C16.3282 39.7226 16.4649 39.5179 16.5581 39.2926C16.6513 39.0673 16.6993 38.8258 16.6993 38.582V23.7246C16.699 23.2323 16.5035 22.7603 16.1556 22.4123C15.8077 22.0643 15.3359 21.8688 14.8441 21.8688Z" fill="#FF6466"/>
<path d="M89.4343 27.4395V34.8682C89.4343 36.3459 88.8478 37.7631 87.8038 38.808C86.7598 39.8529 85.3439 40.44 83.8675 40.44H80.157C79.6649 40.44 79.1931 40.2443 78.8451 39.8961C78.4972 39.5478 78.3017 39.0755 78.3017 38.5831V23.7246C78.3017 23.4808 78.3497 23.2393 78.443 23.014C78.5362 22.7887 78.6729 22.584 78.8451 22.4116C79.0174 22.2392 79.2219 22.1024 79.447 22.0091C79.6721 21.9157 79.9134 21.8677 80.157 21.8677H83.8675C85.3439 21.8677 86.7598 22.4547 87.8038 23.4997C88.8478 24.5446 89.4343 25.9618 89.4343 27.4395ZM5.5668 34.8682V27.4395C5.56681 26.3477 5.8873 25.2799 6.48847 24.3689C7.08964 23.4578 7.94498 22.7437 8.94825 22.315C8.99878 22.2952 9.04073 22.2582 9.06675 22.2105C9.09278 22.1628 9.10123 22.1074 9.09064 22.0542C9.08004 22.0009 9.05106 21.953 9.00877 21.9189C8.96649 21.8848 8.91358 21.8667 8.85929 21.8677H5.5668C4.83576 21.8677 4.11187 22.0118 3.43648 22.2918C2.76108 22.5718 2.1474 22.9823 1.63048 23.4997C1.11355 24.017 0.703505 24.6313 0.423747 25.3073C0.14399 25.9833 0 26.7078 0 27.4395L0 34.8682C-1.35533e-08 35.5998 0.143997 36.3243 0.423768 37.0002C0.703539 37.6762 1.1136 38.2903 1.63054 38.8076C2.14748 39.3249 2.76117 39.7353 3.43656 40.0151C4.11195 40.295 4.83581 40.439 5.5668 40.4389H11.1336C9.65738 40.4389 8.2416 39.852 7.19766 38.8073C6.15371 37.7626 5.56708 36.3457 5.5668 34.8682Z" fill="#FF393A"/>
<path d="M53.0672 61.0537C53.0672 65.1558 50.5753 68.4824 47.5004 68.4824C44.4255 68.4824 41.9336 65.1569 41.9336 61.0537C41.9336 56.9505 44.4255 53.625 47.5004 53.625C50.5753 53.625 53.0672 56.9515 53.0672 61.0537Z" fill="#0069A3"/>
<path d="M53.0668 61.0525C53.134 62.3779 52.8626 63.6986 52.2782 64.8899C51.6939 66.0812 50.8159 67.1038 49.7271 67.8612C48.6373 67.1044 47.7583 66.0821 47.173 64.8908C46.5877 63.6994 46.3155 62.3784 46.3821 61.0525C46.3149 59.7271 46.5863 58.4064 47.1706 57.2152C47.7549 56.0239 48.6329 55.0013 49.7217 54.2439C50.8115 55.0007 51.6906 56.023 52.2759 57.2143C52.8612 58.4056 53.1334 59.7266 53.0668 61.0525Z" fill="#0088CC"/>
<path d="M82.9403 32.2678C82.9405 35.6824 82.2688 39.0635 80.9635 42.2182C79.6582 45.3729 77.7448 48.2394 75.3326 50.6539C72.9205 53.0684 70.0567 54.9838 66.9049 56.2905C63.7532 57.5973 60.3751 58.2698 56.9636 58.2698H38.0372C31.1477 58.2698 24.5405 55.5306 19.6689 50.6547C14.7974 45.7787 12.0605 39.1656 12.0605 32.27C12.0605 25.3744 14.7974 18.7612 19.6689 13.8853C24.5405 9.0094 31.1477 6.27014 38.0372 6.27014H56.9636C63.8527 6.27014 70.4596 9.00911 75.3311 13.8846C80.2026 18.76 82.9397 25.3726 82.9403 32.2678ZM57.8907 61.9815H37.1101C32.3145 61.9804 27.6123 63.3081 23.5245 65.8177C19.4366 68.3272 16.1227 71.9206 13.9501 76.1995C18.2093 80.8628 23.3922 84.5871 29.1686 87.1352C34.945 89.6832 41.1884 90.9991 47.5009 90.9991C53.8135 90.9991 60.0568 89.6832 65.8333 87.1352C71.6097 84.5871 76.7926 80.8628 81.0518 76.1995C78.879 71.9204 75.565 68.327 71.4769 65.8174C67.3889 63.3078 62.6864 61.9802 57.8907 61.9815Z" fill="#97F0F2"/>
<path d="M56.9626 58.2698H45.2696C38.3802 58.2698 31.7729 55.5306 26.9013 50.6547C22.0298 45.7787 19.293 39.1656 19.293 32.27C19.293 25.3744 22.0298 18.7612 26.9013 13.8853C31.7729 9.0094 38.3802 6.27014 45.2696 6.27014H56.9626C63.8521 6.27014 70.4593 9.0094 75.3309 13.8853C80.2024 18.7612 82.9393 25.3744 82.9393 32.27C82.9393 39.1656 80.2024 45.7787 75.3309 50.6547C70.4593 55.5306 63.8521 58.2698 56.9626 58.2698ZM47.4999 90.9989C53.8132 91.0049 60.0581 89.6913 65.8348 87.1421C71.6115 84.5929 76.7927 80.8644 81.0465 76.1952C78.8736 71.9177 75.5601 68.3257 71.4731 65.817C67.3862 63.3083 62.6852 61.9807 57.8908 61.9815H44.5311C38.8057 61.982 33.2407 63.8752 28.7008 67.367C24.161 70.8587 20.9004 75.7535 19.4259 81.2907C27.4264 87.5954 37.3173 91.0158 47.4999 90.9989Z" fill="#C0FBFF"/>
<path d="M64.1996 82.4524C64.2017 84.4189 63.8559 86.3703 63.1782 88.2162C58.1459 89.9993 52.8382 90.8775 47.5003 90.8101C42.1624 90.8775 36.8547 89.9993 31.8224 88.2162C30.9811 85.9231 30.6522 83.4734 30.8588 81.0394C31.0654 78.6054 31.8025 76.2463 33.0182 74.1282C34.2339 72.01 35.8986 70.1843 37.8953 68.7795C39.8919 67.3747 42.1719 66.4251 44.5748 65.9973C46.9777 65.5695 49.445 65.6741 51.8031 66.3036C54.1613 66.9332 56.3529 68.0724 58.2238 69.6411C60.0946 71.2097 61.5992 73.1698 62.6317 75.3832C63.6641 77.5966 64.1993 80.0096 64.1996 82.4524Z" fill="#0088CC"/>
<path d="M59.7457 48.0532H35.2535C33.5478 48.0534 31.8588 47.7172 30.283 47.064C28.7071 46.4108 27.2752 45.4533 26.0691 44.2462C24.8629 43.039 23.9061 41.606 23.2534 40.0287C22.6006 38.4515 22.2646 36.761 22.2646 35.0538V29.4831C22.2645 27.7758 22.6004 26.0853 23.2531 24.5079C23.9058 22.9305 24.8625 21.4973 26.0687 20.2901C27.2748 19.0829 28.7068 18.1253 30.2827 17.472C31.8587 16.8187 33.5477 16.4825 35.2535 16.4827H59.7457C61.4518 16.482 63.1414 16.8177 64.7178 17.4707C66.2942 18.1238 67.7267 19.0813 68.9333 20.2886C70.1399 21.4959 71.097 22.9293 71.75 24.5069C72.403 26.0845 72.739 27.7755 72.7388 29.4831V35.0549C72.7387 36.7624 72.4025 38.4531 71.7494 40.0305C71.0963 41.6078 70.1391 43.041 68.9325 44.2481C67.7259 45.4551 66.2936 46.4124 64.7173 47.0653C63.141 47.7182 61.4516 48.0539 59.7457 48.0532ZM41.7506 86.6598C39.8482 86.2475 38.1419 85.201 36.911 83.6917C35.6801 82.1824 34.9975 80.2997 34.9748 78.3515V78.2786C34.969 74.8645 36.0126 71.5314 37.964 68.7312C34.9328 70.8434 32.6859 73.9011 31.5747 77.4265C30.4634 80.952 30.5502 84.7466 31.8217 88.2174C41.9443 91.921 53.0495 91.921 63.1722 88.2174C63.4272 87.5273 63.6363 86.8209 63.7981 86.1031C56.6042 88.0863 49.0346 88.276 41.7506 86.6555V86.6598Z" fill="#006CBC"/>
<path d="M59.7463 48.0531H40.8187C37.3743 48.0528 34.0711 46.6831 31.6357 44.2453C29.2002 41.8075 27.832 38.5012 27.832 35.0537V29.483C27.8319 27.7759 28.1677 26.0855 28.8203 24.5083C29.4728 22.9311 30.4294 21.4979 31.6353 20.2907C32.8412 19.0835 34.2729 18.1259 35.8486 17.4725C37.4243 16.8191 39.1132 16.4827 40.8187 16.4825H59.7463C61.4519 16.4825 63.1409 16.8188 64.7167 17.4722C66.2926 18.1255 67.7244 19.0831 68.9304 20.2904C70.1364 21.4976 71.0931 22.9307 71.7457 24.508C72.3984 26.0853 72.7342 27.7758 72.734 29.483V35.0548C72.7338 38.5022 71.3653 41.8084 68.9296 44.246C66.494 46.6837 63.1907 48.0531 59.7463 48.0531Z" fill="#0088CC"/>
<path d="M52.7488 37.5006C53.0967 37.8489 53.2922 38.3212 53.2922 38.8136C53.2922 39.3061 53.0967 39.7784 52.7488 40.1267C51.3558 41.5179 49.4682 42.2992 47.5003 42.2992C45.5324 42.2992 43.6449 41.5179 42.2518 40.1267C42.0796 39.9542 41.9429 39.7494 41.8497 39.524C41.7565 39.2987 41.7086 39.0572 41.7086 38.8133C41.7087 38.5694 41.7567 38.3279 41.85 38.1025C41.9433 37.8772 42.08 37.6725 42.2524 37.5001C42.4247 37.3277 42.6293 37.1909 42.8545 37.0976C43.0796 37.0043 43.3209 36.9563 43.5646 36.9564C43.8083 36.9564 44.0496 37.0045 44.2747 37.0979C44.4998 37.1913 44.7043 37.3281 44.8766 37.5006C45.5733 38.1971 46.5178 38.5883 47.5025 38.5883C48.4872 38.5883 49.4316 38.1971 50.1283 37.5006C50.4762 37.1524 50.9481 36.9567 51.4402 36.9567C51.9322 36.9567 52.4041 37.1524 52.752 37.5006H52.7488ZM41.9678 26.1296C40.5746 24.7387 38.6872 23.9575 36.7193 23.9575C34.7515 23.9575 32.864 24.7387 31.4709 26.1296C31.1333 26.4802 30.9468 26.9493 30.9513 27.4361C30.9557 27.9229 31.1509 28.3885 31.4949 28.7327C31.8388 29.077 32.304 29.2723 32.7903 29.2768C33.2767 29.2813 33.7454 29.0946 34.0956 28.7568C34.7921 28.0598 35.7366 27.6682 36.7215 27.6682C37.7063 27.6682 38.6509 28.0598 39.3473 28.7568C39.5185 28.9345 39.7233 29.0764 39.9499 29.174C40.1764 29.2716 40.4202 29.3231 40.6668 29.3254C40.9135 29.3277 41.1581 29.2807 41.3864 29.1873C41.6147 29.0939 41.8222 28.9558 41.9966 28.7813C42.171 28.6067 42.3089 28.3991 42.4022 28.1706C42.4956 27.942 42.5425 27.6972 42.5402 27.4503C42.5379 27.2034 42.4865 26.9595 42.389 26.7327C42.2914 26.506 42.1497 26.301 41.9721 26.1296H41.9678ZM63.5309 26.1296C62.1377 24.7387 60.2502 23.9575 58.2824 23.9575C56.3146 23.9575 54.4271 24.7387 53.0339 26.1296C52.6964 26.4802 52.5098 26.9493 52.5143 27.4361C52.5188 27.9229 52.714 28.3885 53.0579 28.7327C53.4018 29.077 53.867 29.2723 54.3534 29.2768C54.8398 29.2813 55.3085 29.0946 55.6587 28.7568C56.3553 28.06 57.2997 27.6687 58.2845 27.6687C59.2693 27.6687 60.2138 28.06 60.9104 28.7568C61.0827 28.9292 61.2873 29.066 61.5125 29.1593C61.7376 29.2525 61.9789 29.3005 62.2226 29.3005C62.4663 29.3004 62.7076 29.2523 62.9327 29.159C63.1578 29.0656 63.3623 28.9287 63.5346 28.7562C63.7069 28.5837 63.8435 28.379 63.9367 28.1536C64.0299 27.9283 64.0779 27.6867 64.0778 27.4428C64.0778 27.1989 64.0297 26.9574 63.9364 26.7321C63.8431 26.5068 63.7064 26.3021 63.5341 26.1296H63.5309Z" fill="#30D6CE"/>
<path d="M50.2835 81.1566V90.9184C49.3625 90.9742 48.4336 91.0021 47.4969 91.0021C46.5601 91.0021 45.6313 90.9742 44.7102 90.9184V81.1566C44.6921 80.7795 44.7507 80.4026 44.8824 80.0488C45.0141 79.695 45.2162 79.3717 45.4765 79.0984C45.7367 78.8251 46.0497 78.6075 46.3964 78.4588C46.7431 78.3102 47.1164 78.2335 47.4936 78.2335C47.8709 78.2335 48.2441 78.3102 48.5909 78.4588C48.9376 78.6075 49.2506 78.8251 49.5108 79.0984C49.7711 79.3717 49.9732 79.695 50.1049 80.0488C50.2366 80.4026 50.2952 80.7795 50.277 81.1566H50.2835Z" fill="#84DEEA"/>
<path d="M50.2835 81.1566V85.2427C50.3016 85.6198 50.243 85.9967 50.1113 86.3504C49.9796 86.7042 49.7775 87.0276 49.5173 87.3009C49.257 87.5742 48.9441 87.7918 48.5973 87.9404C48.2506 88.0891 47.8773 88.1657 47.5001 88.1657C47.1229 88.1657 46.7496 88.0891 46.4029 87.9404C46.0561 87.7918 45.7431 87.5742 45.4829 87.3009C45.2227 87.0276 45.0206 86.7042 44.8889 86.3504C44.7571 85.9967 44.6986 85.6198 44.7167 85.2427V81.1566C44.6986 80.7795 44.7571 80.4027 44.8889 80.0489C45.0206 79.6951 45.2227 79.3717 45.4829 79.0984C45.7431 78.8251 46.0561 78.6076 46.4029 78.4589C46.7496 78.3102 47.1229 78.2336 47.5001 78.2336C47.8773 78.2336 48.2506 78.3102 48.5973 78.4589C48.9441 78.6076 49.257 78.8251 49.5173 79.0984C49.7775 79.3717 49.9796 79.6951 50.1113 80.0489C50.243 80.4027 50.3016 80.7795 50.2835 81.1566ZM47.4969 76.1427C48.1574 76.1427 48.8031 75.9466 49.3523 75.5793C49.9015 75.212 50.3295 74.69 50.5823 74.0792C50.8351 73.4684 50.9012 72.7963 50.7724 72.1479C50.6435 71.4995 50.3254 70.9039 49.8584 70.4364C49.3913 69.969 48.7962 69.6506 48.1484 69.5216C47.5006 69.3926 46.8291 69.4588 46.2188 69.7118C45.6086 69.9648 45.087 70.3933 44.7201 70.943C44.3531 71.4927 44.1572 72.1389 44.1572 72.8C44.1572 73.2393 44.2437 73.6742 44.4118 74.08C44.5798 74.4857 44.8261 74.8543 45.1365 75.1648C45.447 75.4752 45.8155 75.7214 46.2211 75.8892C46.6266 76.057 47.0613 76.1431 47.5001 76.1427H47.4969Z" fill="#FFF5F5"/>
<path d="M87.2073 40.4388V44.1526C87.205 46.1222 86.4223 48.0104 85.0309 49.403C83.6395 50.7957 81.753 51.5791 79.7852 51.5813H48.2461V47.8622H79.7863C80.7699 47.8607 81.7129 47.469 82.4084 46.7728C83.104 46.0767 83.4954 45.1329 83.4968 44.1484V40.4388H87.2073Z" fill="#025F80"/>
<path d="M53.6148 52.5779H41.388C40.5588 52.5626 39.7687 52.2222 39.1877 51.6299C38.6068 51.0376 38.2812 50.2407 38.2812 49.4107C38.2812 48.5806 38.6068 47.7837 39.1877 47.1914C39.7687 46.5991 40.5588 46.2587 41.388 46.2434H53.6148C54.4439 46.2587 55.234 46.5991 55.815 47.1914C56.396 47.7837 56.7215 48.5806 56.7215 49.4107C56.7215 50.2407 56.396 51.0376 55.815 51.6299C55.234 52.2222 54.4439 52.5626 53.6148 52.5779Z" fill="#FF6466"/>
<path d="M53.6137 52.578H46.9537C46.5332 52.5857 46.1154 52.5095 45.7247 52.3538C45.334 52.1981 44.9782 51.9661 44.6781 51.6712C44.3781 51.3763 44.1397 51.0245 43.977 50.6364C43.8143 50.2483 43.7305 49.8316 43.7305 49.4107C43.7305 48.9898 43.8143 48.5731 43.977 48.185C44.1397 47.7969 44.3781 47.4451 44.6781 47.1502C44.9782 46.8554 45.334 46.6233 45.7247 46.4676C46.1154 46.3119 46.5332 46.2357 46.9537 46.2435H53.6126C54.4418 46.2587 55.2318 46.5991 55.8128 47.1914C56.3938 47.7838 56.7193 48.5806 56.7193 49.4107C56.7193 50.2408 56.3938 51.0376 55.8128 51.63C55.2318 52.2223 54.4428 52.5627 53.6137 52.578Z" fill="#FF895A"/>
</g>
<defs>
<clipPath id="clip0_85_1581">
<rect width="95" height="91" fill="white"/>
</clipPath>
</defs>
</svg>
