<svg width="14" height="12" viewBox="0 0 14 12" fill="none" xmlns="http://www.w3.org/2000/svg">
<path fill-rule="evenodd" clip-rule="evenodd" d="M5.44445 12H8.55554C10.7403 12 11.8327 12 12.6174 11.5097C12.957 11.2975 13.2487 11.0247 13.4757 10.7071C14 9.9734 14 8.95193 14 6.90907C14 4.86627 14 3.84481 13.4757 3.11107C13.2487 2.79343 12.957 2.52069 12.6174 2.30845C12.1131 1.99342 11.4819 1.88082 10.5154 1.84057C10.0542 1.84057 9.65713 1.51379 9.56669 1.09091C9.43096 0.456593 8.83533 0 8.14359 0H5.85641C5.16463 0 4.56901 0.456593 4.43333 1.09091C4.34288 1.51379 3.9458 1.84057 3.4846 1.84057C2.51813 1.88082 1.88688 1.99342 1.38267 2.30845C1.04296 2.52069 0.751296 2.79343 0.524314 3.11107C8.34465e-08 3.84481 0 4.86627 0 6.90907C0 8.95193 8.34465e-08 9.9734 0.524314 10.7071C0.751296 11.0247 1.04296 11.2975 1.38267 11.5097C2.16737 12 3.25972 12 5.44445 12ZM7 4.18182C5.38917 4.18182 4.08333 5.40287 4.08333 6.90907C4.08333 8.41533 5.38917 9.63633 7 9.63633C8.61084 9.63633 9.91669 8.41533 9.91669 6.90907C9.91669 5.40287 8.61084 4.18182 7 4.18182ZM7 5.27273C6.03351 5.27273 5.25 6.00533 5.25 6.90907C5.25 7.8128 6.03351 8.54547 7 8.54547C7.96649 8.54547 8.75 7.8128 8.75 6.90907C8.75 6.00533 7.96649 5.27273 7 5.27273ZM10.3055 4.72727C10.3055 4.42603 10.5667 4.18182 10.8889 4.18182H11.6667C11.9888 4.18182 12.25 4.42603 12.25 4.72727C12.25 5.02853 11.9888 5.27273 11.6667 5.27273H10.8889C10.5667 5.27273 10.3055 5.02853 10.3055 4.72727Z" fill="#1C274C"/>
</svg>
