<svg width="40" height="36" viewBox="0 0 40 36" fill="none" xmlns="http://www.w3.org/2000/svg">
<path d="M19.9998 16.125C18.8492 16.125 17.9165 16.9644 17.9165 18C17.9165 19.0356 18.8492 19.875 19.9998 19.875C21.1505 19.875 22.0832 19.0356 22.0832 18C22.0832 16.9644 21.1505 16.125 19.9998 16.125Z" fill="white"/>
<path fill-rule="evenodd" clip-rule="evenodd" d="M9.82088 21.0897C8.82928 20.0545 8.3335 19.5369 8.3335 18C8.3335 16.4631 8.8293 15.9455 9.82086 14.9103C11.8008 12.8433 15.1213 10.5 20.0002 10.5C24.879 10.5 28.1995 12.8433 30.1795 14.9103C31.171 15.9455 31.6668 16.4631 31.6668 18C31.6668 19.5369 31.171 20.0545 30.1795 21.0897C28.1995 23.1567 24.879 25.5 20.0002 25.5C15.1213 25.5 11.8008 23.1567 9.82088 21.0897ZM15.4168 18C15.4168 15.7218 17.4688 13.875 20.0002 13.875C22.5315 13.875 24.5835 15.7218 24.5835 18C24.5835 20.2782 22.5315 22.125 20.0002 22.125C17.4688 22.125 15.4168 20.2782 15.4168 18Z" fill="white"/>
</svg>
