<svg width="24" height="24" viewBox="0 0 24 24" fill="none" xmlns="http://www.w3.org/2000/svg">
<path fill-rule="evenodd" clip-rule="evenodd" d="M-1.04907e-06 12C-1.62846e-06 5.37259 5.37258 1.62846e-06 12 1.04907e-06C18.6274 4.69686e-07 24 5.37258 24 12C24 18.6274 18.6274 24 12 24C5.37258 24 -4.69686e-07 18.6274 -1.04907e-06 12ZM10.6668 17.3333C10.6668 16.597 11.2638 16 12.0002 16C12.7365 16 13.3335 16.597 13.3335 17.3333C13.3335 18.0697 12.7365 18.6667 12.0002 18.6667C11.2638 18.6667 10.6668 18.0697 10.6668 17.3333ZM11 5.33333L11 13.3333L13 13.3333L13 5.33333L11 5.33333Z" fill="#1577DC"/>
</svg>
