<svg xmlns="http://www.w3.org/2000/svg" width="18" height="18" viewBox="0 0 18 18" fill="none">
  <path fill-rule="evenodd" clip-rule="evenodd" d="M8.68392 15.9206C12.6806 15.9206 15.9206 12.6807 15.9206 8.68398C15.9206 4.68729 12.6806 1.44733 8.68392 1.44733C4.68723 1.44733 1.44727 4.68729 1.44727 8.68398C1.44727 12.6807 4.68723 15.9206 8.68392 15.9206Z" stroke="#D8D8D8"/>
  <path fill-rule="evenodd" clip-rule="evenodd" d="M8.68421 15.197C8.68421 15.197 11.5789 12.8286 11.5789 8.68398C11.5789 4.53935 8.68421 2.17099 8.68421 2.17099C8.68421 2.17099 5.78955 4.53935 5.78955 8.68398C5.78955 12.8286 8.68421 15.197 8.68421 15.197Z" stroke="#D8D8D8"/>
  <path d="M1.8091 6.513L15.5587 6.513" stroke="#D8D8D8" stroke-linecap="round"/>
  <path d="M1.8091 10.855H15.5587" stroke="#D8D8D8" stroke-linecap="round"/>
</svg>