<svg width="16" height="17" viewBox="0 0 16 17" fill="none" xmlns="http://www.w3.org/2000/svg">
<path d="M13.2178 3.28259V2.78259H13.7178V3.28259H13.2178ZM6.61481 10.5927C6.41954 10.7879 6.10296 10.7879 5.9077 10.5927C5.71244 10.3974 5.71244 10.0808 5.9077 9.88556L6.61481 10.5927ZM12.7178 8.84781V3.28259H13.7178V8.84781H12.7178ZM13.2178 3.78259H7.65256V2.78259H13.2178V3.78259ZM13.5713 3.63615L6.61481 10.5927L5.9077 9.88556L12.8642 2.92904L13.5713 3.63615Z" fill="white"/>
<path d="M13.2178 10.9348V10.9348C13.2178 11.379 13.2178 11.6011 13.1943 11.7877C13.0231 13.1475 11.9522 14.2184 10.5924 14.3895C10.4058 14.413 10.1837 14.413 9.73951 14.413H7.65256C5.24441 14.413 4.04033 14.413 3.22069 13.7616C3.04228 13.6198 2.88061 13.4581 2.73881 13.2797C2.08734 12.46 2.08734 11.256 2.08734 8.84781V6.76085C2.08734 6.31664 2.08734 6.09453 2.11082 5.90795C2.28198 4.54815 3.3529 3.47723 4.71269 3.30608C4.89928 3.28259 5.12139 3.28259 5.5656 3.28259V3.28259" stroke="white" stroke-linecap="round"/>
</svg>
