<svg width="19" height="17" viewBox="0 0 19 17" fill="none" xmlns="http://www.w3.org/2000/svg">
<path d="M11.8611 6.5339H7.13889M1.02675 6.98465L7.82323 11.327C8.42909 11.7126 8.73207 11.9053 9.05951 11.9802C9.34879 12.0464 9.65045 12.0464 9.93983 11.9802C10.2673 11.9053 10.5702 11.7126 11.1761 11.327L17.9726 6.98465M7.89265 1.63748L2.41491 4.92129C1.89836 5.23095 1.6401 5.38577 1.45277 5.59507C1.28697 5.78032 1.16222 5.99572 1.08605 6.22828C1 6.49102 1 6.78214 1 7.36437V13.1151C1 14.1249 1 14.6298 1.20588 15.0155C1.38697 15.3548 1.67593 15.6306 2.03135 15.8035C2.4354 16 2.96435 16 4.02222 16H14.9778C16.0356 16 16.5646 16 16.9687 15.8035C17.3241 15.6306 17.6131 15.3548 17.7941 15.0155C18 14.6298 18 14.1249 18 13.1151V7.36437C18 6.78214 18 6.49102 17.914 6.22828C17.8377 5.99572 17.7131 5.78032 17.5472 5.59507C17.3599 5.38577 17.1016 5.23095 16.5851 4.92129L11.1073 1.63747C10.5243 1.28801 10.2329 1.11328 9.92018 1.04517C9.64355 0.984944 9.35644 0.984944 9.07982 1.04517C8.76711 1.11328 8.47566 1.28801 7.89265 1.63748Z" stroke="#05E8FF" stroke-width="2" stroke-linecap="round" stroke-linejoin="round"/>
</svg>
