<svg xmlns="http://www.w3.org/2000/svg" width="17" height="17" viewBox="0 0 17 17" fill="none">
  <path fill-rule="evenodd" clip-rule="evenodd" d="M9.58698 0.129404C9.27222 3.7998e-08 8.87315 0 8.075 0C7.27685 0 6.87777 3.7998e-08 6.56302 0.129404C6.14329 0.301946 5.80982 0.632893 5.63597 1.04944C5.55661 1.23959 5.52555 1.46073 5.51339 1.78329C5.49554 2.25733 5.25058 2.69611 4.83664 2.93329C4.4227 3.17047 3.91734 3.16161 3.49476 2.93995C3.2072 2.7891 2.9987 2.70523 2.79309 2.67837C2.34267 2.61951 1.88715 2.74065 1.52673 3.01512C1.25642 3.22097 1.05688 3.56397 0.657813 4.24994C0.258747 4.93592 0.0592176 5.27891 0.0147456 5.61417C-0.0445589 6.06118 0.077501 6.51326 0.354066 6.87098C0.480299 7.03426 0.657703 7.17145 0.933043 7.34315C1.33782 7.5956 1.59827 8.02562 1.59824 8.5C1.59822 8.97439 1.33778 9.40431 0.933043 9.65668C0.65766 9.82847 0.480223 9.96574 0.353981 10.129C0.0774161 10.4867 -0.0446353 10.9387 0.0146606 11.3858C0.0591326 11.721 0.25867 12.0641 0.657728 12.75C1.05679 13.436 1.25633 13.779 1.52665 13.9848C1.88707 14.2593 2.34259 14.3804 2.793 14.3216C2.99861 14.2947 3.20709 14.2108 3.49463 14.06C3.91724 13.8383 4.42263 13.8295 4.8366 14.0667C5.25057 14.3039 5.49553 14.7427 5.51339 15.2168C5.52555 15.5393 5.55661 15.7604 5.63597 15.9506C5.80982 16.3671 6.14329 16.6981 6.56302 16.8706C6.87777 17 7.27685 17 8.075 17C8.87315 17 9.27222 17 9.58698 16.8706C10.0067 16.6981 10.3402 16.3671 10.514 15.9506C10.5934 15.7604 10.6245 15.5393 10.6366 15.2167C10.6545 14.7427 10.8994 14.3039 11.3133 14.0667C11.7273 13.8294 12.2327 13.8383 12.6553 14.06C12.9429 14.2108 13.1513 14.2946 13.3569 14.3215C13.8073 14.3804 14.2628 14.2593 14.6232 13.9848C14.8936 13.7789 15.0931 13.436 15.4922 12.7499C15.8913 12.064 16.0908 11.721 16.1353 11.3858C16.1945 10.9387 16.0725 10.4866 15.796 10.1289C15.6697 9.96566 15.4923 9.82838 15.2169 9.65668C14.8122 9.40431 14.5517 8.9743 14.5517 8.49992C14.5517 8.02553 14.8122 7.59569 15.2169 7.34332C15.4924 7.17154 15.6697 7.03435 15.7961 6.87098C16.0726 6.51332 16.1946 6.06124 16.1354 5.61422C16.0908 5.27897 15.8913 4.93598 15.4923 4.25C15.0932 3.56402 14.8937 3.22103 14.6233 3.01518C14.2629 2.74071 13.8074 2.61957 13.357 2.67843C13.1514 2.70529 12.9429 2.78916 12.6554 2.93998C12.2328 3.16165 11.7274 3.17052 11.3134 2.93332C10.8995 2.69612 10.6545 2.25731 10.6366 1.78325C10.6244 1.46071 10.5934 1.23958 10.514 1.04944C10.3402 0.632893 10.0067 0.301946 9.58698 0.129404ZM8.075 11.05C9.49407 11.05 10.6444 9.90837 10.6444 8.5C10.6444 7.09164 9.49407 5.95 8.075 5.95C6.65592 5.95 5.50558 7.09164 5.50558 8.5C5.50558 9.90837 6.65592 11.05 8.075 11.05Z" fill="white"/>
</svg>