<svg width="26" height="26" viewBox="0 0 26 26" fill="none" xmlns="http://www.w3.org/2000/svg">
<path d="M13.8125 23.5625H12.1875V25.1875H13.8125V23.5625Z" fill="#05E8FF"/>
<path d="M21.9042 11.3395C21.8339 10.9082 21.6492 10.5037 21.3693 10.1681C21.0894 9.83253 20.7246 9.57823 20.3129 9.43174V9.28955C20.3129 7.35016 19.5425 5.49019 18.1711 4.11883C16.7998 2.74747 14.9398 1.97705 13.0004 1.97705C11.061 1.97705 9.20105 2.74747 7.82969 4.11883C6.45833 5.49019 5.68791 7.35016 5.68791 9.28955V9.43174C5.27601 9.57837 4.91103 9.83291 4.63112 10.1688C4.3512 10.5047 4.16661 10.9095 4.09663 11.3411C3.19548 11.4326 2.36036 11.8553 1.75307 12.5273C1.14578 13.1994 0.80957 14.0729 0.80957 14.9787C0.80957 15.8845 1.14578 16.758 1.75307 17.43C2.36036 18.1021 3.19548 18.5248 4.09663 18.6162C4.1977 19.2179 4.52075 19.7599 5.00198 20.135C5.4832 20.51 6.0876 20.691 6.69577 20.6421C7.30395 20.5932 7.87167 20.318 8.2868 19.8709C8.70192 19.4237 8.93426 18.8372 8.93791 18.2271V11.7271C8.93733 11.2235 8.7808 10.7324 8.48982 10.3214C8.19884 9.9104 7.7877 9.5996 7.31291 9.43174V9.28955C7.31291 7.78113 7.91213 6.33449 8.97874 5.26788C10.0454 4.20127 11.492 3.60205 13.0004 3.60205C14.5088 3.60205 15.9555 4.20127 17.0221 5.26788C18.0887 6.33449 18.6879 7.78113 18.6879 9.28955V9.43174C18.2131 9.5996 17.802 9.9104 17.511 10.3214C17.22 10.7324 17.0635 11.2235 17.0629 11.7271V18.2271C17.0635 18.7306 17.22 19.2217 17.511 19.6327C17.802 20.0437 18.2131 20.3545 18.6879 20.5224V21.8833C18.6879 22.0988 18.6023 22.3055 18.4499 22.4578C18.2976 22.6102 18.0909 22.6958 17.8754 22.6958H15.4379V24.3208H17.8754C18.5217 24.3202 19.1413 24.0631 19.5983 23.6062C20.0552 23.1492 20.3123 22.5296 20.3129 21.8833V20.5224C20.7248 20.3757 21.0898 20.1212 21.3697 19.7853C21.6496 19.4494 21.8342 19.0446 21.9042 18.613C22.8053 18.5215 23.6405 18.0988 24.2477 17.4268C24.855 16.7547 25.1912 15.8812 25.1912 14.9754C25.1912 14.0696 24.855 13.1961 24.2477 12.5241C23.6405 11.852 22.8053 11.4293 21.9042 11.3379V11.3395ZM2.43791 14.9771C2.43842 14.5089 2.60034 14.0553 2.89636 13.6927C3.19238 13.3301 3.60439 13.0806 4.06291 12.9864V16.9677C3.60439 16.8735 3.19238 16.624 2.89636 16.2614C2.60034 15.8988 2.43842 15.4452 2.43791 14.9771ZM7.31291 18.2271C7.31291 18.4425 7.22731 18.6492 7.07493 18.8016C6.92256 18.9539 6.7159 19.0396 6.50041 19.0396C6.28492 19.0396 6.07826 18.9539 5.92589 18.8016C5.77351 18.6492 5.68791 18.4425 5.68791 18.2271V11.7271C5.68791 11.5116 5.77351 11.3049 5.92589 11.1525C6.07826 11.0002 6.28492 10.9146 6.50041 10.9146C6.7159 10.9146 6.92256 11.0002 7.07493 11.1525C7.22731 11.3049 7.31291 11.5116 7.31291 11.7271V18.2271ZM20.3129 18.2271C20.3129 18.4425 20.2273 18.6492 20.0749 18.8016C19.9226 18.9539 19.7159 19.0396 19.5004 19.0396C19.2849 19.0396 19.0783 18.9539 18.9259 18.8016C18.7735 18.6492 18.6879 18.4425 18.6879 18.2271V11.7271C18.6879 11.5116 18.7735 11.3049 18.9259 11.1525C19.0783 11.0002 19.2849 10.9146 19.5004 10.9146C19.7159 10.9146 19.9226 11.0002 20.0749 11.1525C20.2273 11.3049 20.3129 11.5116 20.3129 11.7271V18.2271ZM21.9379 16.9677V12.9864C22.3971 13.0797 22.8099 13.3288 23.1064 13.6916C23.403 14.0544 23.5649 14.5085 23.5649 14.9771C23.5649 15.4456 23.403 15.8997 23.1064 16.2625C22.8099 16.6253 22.3971 16.8744 21.9379 16.9677Z" fill="#05E8FF"/>
</svg>
