<svg width="14" height="15" viewBox="0 0 14 15" fill="none" xmlns="http://www.w3.org/2000/svg">
<path d="M2.35434 7.31266C4.97062 6.17279 6.7152 5.4213 7.58809 5.05824C10.0804 4.02159 10.5983 3.84152 10.9358 3.83551C11.0101 3.83426 11.1761 3.85266 11.2836 3.93991C11.3744 4.01358 11.3994 4.1131 11.4114 4.18295C11.4233 4.2528 11.4382 4.41192 11.4264 4.53625C11.2913 5.95535 10.7069 9.3991 10.4096 10.9885C10.2838 11.661 10.0361 11.8865 9.79626 11.9086C9.2751 11.9566 8.87935 11.5642 8.37454 11.2333C7.58467 10.7155 7.13847 10.3932 6.37175 9.88792C5.48568 9.30405 6.06008 8.98312 6.56505 8.45863C6.69721 8.32137 8.99346 6.23271 9.0379 6.04327C9.04346 6.01955 9.04865 5.93122 8.99614 5.8846C8.94367 5.83794 8.86625 5.85388 8.81033 5.86656C8.73113 5.88456 7.46928 6.71857 5.02481 8.36865C4.66666 8.61462 4.34224 8.73446 4.05157 8.72816C3.73113 8.72124 3.11474 8.547 2.65652 8.39805C2.09448 8.21533 1.64779 8.11875 1.68669 7.80849C1.70695 7.64685 1.9295 7.48159 2.35434 7.31266Z" fill="#F7FBFA"/>
</svg>
