<svg width="15" height="15" viewBox="0 0 15 15" fill="none" xmlns="http://www.w3.org/2000/svg">
<g clip-path="url(#clip0_29_3763)">
<mask id="mask0_29_3763" style="mask-type:luminance" maskUnits="userSpaceOnUse" x="0" y="0" width="15" height="15">
<path d="M14.0648 0.825684H0.725342V14.1652H14.0648V0.825684Z" fill="white"/>
</mask>
<g mask="url(#mask0_29_3763)">
<path d="M14.0648 3.36892C13.5646 3.57735 13.0643 3.7441 12.4807 3.78578C13.0643 3.4523 13.4812 2.91038 13.6896 2.28509C13.1477 2.61858 12.5641 2.82701 11.9388 2.95206C11.4386 2.41015 10.7299 2.07666 9.97956 2.07666C8.47887 2.07666 7.22829 3.28555 7.22829 4.82793C7.22829 5.03636 7.26998 5.24477 7.31167 5.45323C5.01895 5.32816 3.018 4.24433 1.64237 2.57689C1.39225 2.99375 1.26719 3.4523 1.26719 3.95253C1.26719 4.9113 1.76743 5.74502 2.47609 6.24526C2.01754 6.24526 1.60068 6.12019 1.22551 5.91178V5.95347C1.22551 7.2874 2.18429 8.37122 3.43487 8.62136C3.18475 8.66305 2.97632 8.7047 2.7262 8.7047C2.55946 8.7047 2.39271 8.7047 2.22597 8.66305C2.55946 9.74688 3.60161 10.5389 4.76881 10.5806C3.85172 11.3309 2.64283 11.7478 1.35057 11.7478C1.14214 11.7478 0.892023 11.7478 0.683594 11.7061C1.93417 12.4565 3.39318 12.915 4.93556 12.915C9.97956 12.915 12.7308 8.74639 12.7308 5.11975C12.7308 4.99467 12.7308 4.86962 12.7308 4.78624C13.231 4.36939 13.6896 3.91084 14.0648 3.36892Z" fill="white" fill-opacity="0.9"/>
</g>
</g>
<defs>
<clipPath id="clip0_29_3763">
<rect width="13.59" height="13.59" fill="white" transform="translate(0.600098 0.700195)"/>
</clipPath>
</defs>
</svg>
