<svg width="14" height="17" viewBox="0 0 14 17" fill="none" xmlns="http://www.w3.org/2000/svg">
<path d="M14 1L2.38419e-07 0.999999" stroke="#05FF1E" stroke-width="2"/>
<path d="M7 4L7.70711 3.29289L7 2.58579L6.29289 3.29289L7 4ZM6 16C6 16.5523 6.44771 17 7 17C7.55228 17 8 16.5523 8 16L6 16ZM13.7071 9.29289L7.70711 3.29289L6.29289 4.70711L12.2929 10.7071L13.7071 9.29289ZM6.29289 3.29289L0.292893 9.29289L1.70711 10.7071L7.70711 4.70711L6.29289 3.29289ZM6 4L6 16L8 16L8 4L6 4Z" fill="#05FF1E"/>
</svg>
